                                                                        S      1
,,,15HTowelHook08_low,22HAutodesk Inventor 2021,7Hunknown,32,38,7,99,15,G      1
,1.,2,2HMM,1,0.08,15H20220822.035846,0.01,10000.,5Hcengi,,11,0,15H202208G      2
26.000000;                                                              G      3
     186       1                                                00000000D      1
     186            -135       1       0                               0D      2
     514       2                                                00010000D      3
     514                       1       1                               0D      4
     510       3                                                00010000D      5
     510            -135       1       1                               0D      6
     510       4                                                00010000D      7
     510            -135       1       1                               0D      8
     510       5                                                00010000D      9
     510            -135       1       1                               0D     10
     510       6                                                00010000D     11
     510            -135       1       1                               0D     12
     510       7                                                00010000D     13
     510            -135       1       1                               0D     14
     510       8                                                00010000D     15
     510            -135       1       1                               0D     16
     510       9                                                00010000D     17
     510            -135       1       1                               0D     18
     510      10                                                00010000D     19
     510            -135       1       1                               0D     20
     510      11                                                00010000D     21
     510            -135       1       1                               0D     22
     510      12                                                00010000D     23
     510            -135       1       1                               0D     24
     510      13                                                00010000D     25
     510            -135       1       1                               0D     26
     508      14                                                00010000D     27
     508                       2       1                               0D     28
     508      16                                                00010000D     29
     508                       2       1                               0D     30
     508      18                                                00010000D     31
     508                       1       1                               0D     32
     508      19                                                00010000D     33
     508                       2       1                               0D     34
     508      21                                                00010000D     35
     508                       1       1                               0D     36
     508      22                                                00010000D     37
     508                       1       1                               0D     38
     508      23                                                00010000D     39
     508                       2       1                               0D     40
     508      25                                                00010000D     41
     508                       2       1                               0D     42
     508      27                                                00010000D     43
     508                       1       1                               0D     44
     508      28                                                00010000D     45
     508                       1       1                               0D     46
     508      29                                                00010000D     47
     508                       2       1                               0D     48
     508      31                                                00010000D     49
     508                       1       1                               0D     50
     508      32                                                00010000D     51
     508                       1       1                               0D     52
     126      33                                                00010000D     53
     126       0               7       0                               0D     54
     126      40                                                00010000D     55
     126       0               3       0                               0D     56
     126      43                                                00010000D     57
     126       0               7       0                               0D     58
     126      50                                                00010000D     59
     126       0               6       0                               0D     60
     126      56                                                00010000D     61
     126       0               6       0                               0D     62
     126      62                                                00010000D     63
     126       0               6       0                               0D     64
     126      68                                                00010000D     65
     126       0               7       0                               0D     66
     126      75                                                00010000D     67
     126       0               3       0                               0D     68
     126      78                                                00010000D     69
     126       0               7       0                               0D     70
     126      85                                                00010000D     71
     126       0               3       0                               0D     72
     126      88                                                00010000D     73
     126       0               6       0                               0D     74
     126      94                                                00010000D     75
     126       0              12       0                               0D     76
     126     106                                                00010000D     77
     126       0               6       0                               0D     78
     126     112                                                00010000D     79
     126       0               4       0                               0D     80
     126     116                                                00010000D     81
     126       0               5       0                               0D     82
     126     121                                                00010000D     83
     126       0               7       0                               0D     84
     126     128                                                00010000D     85
     126       0               5       0                               0D     86
     126     133                                                00010000D     87
     126       0              10       0                               0D     88
     126     143                                                00010000D     89
     126       0               7       0                               0D     90
     126     150                                                00010000D     91
     126       0               5       0                               0D     92
     126     155                                                00010000D     93
     126       0               4       0                               0D     94
     126     159                                                00010000D     95
     126       0               4       0                               0D     96
     126     163                                                00010000D     97
     126       0              49       0                               0D     98
     126     212                                                00010000D     99
     126       0               6       0                               0D    100
     126     218                                                00010000D    101
     126       0               4       0                               0D    102
     126     222                                                00010000D    103
     126       0               9       0                               0D    104
     126     231                                                00010000D    105
     126       0               4       0                               0D    106
     128     235                                                00010000D    107
     128       0    -135      19       0                               0D    108
     128     254                                                00010000D    109
     128       0    -135      13       0                               0D    110
     128     267                                                00010000D    111
     128       0    -135       3       0                               0D    112
     128     270                                                00010000D    113
     128       0    -135      17       0                               0D    114
     128     287                                                00010000D    115
     128       0    -135       3       0                               0D    116
     128     290                                                00010000D    117
     128       0    -135      26       0                               0D    118
     128     316                                                00010000D    119
     128       0    -135      19       0                               0D    120
     128     335                                                00010000D    121
     128       0    -135       7       0                               0D    122
     128     342                                                00010000D    123
     128       0    -135      26       0                               0D    124
     128     368                                                00010000D    125
     128       0    -135       7       0                               0D    126
     128     375                                                00010000D    127
     128       0    -135      21       0                               0D    128
     502     396                                                00010000D    129
     502                       9       1                               0D    130
     504     405                                                00010001D    131
     504                       8       1                               0D    132
     406     413                                                00000000D    133
     406                       1      15                               0D    134
     314     414                                                00000200D    135
     314                       1       0                               0D    136
186,3,1,0,0,1,133;                                                     1P      1
514,11,5,1,7,1,9,1,11,1,13,1,15,1,17,1,19,1,21,1,23,1,25,1;            3P      2
510,107,1,1,27;                                                        5P      3
510,109,1,1,29;                                                        7P      4
510,111,1,1,31;                                                        9P      5
510,113,1,1,33;                                                       11P      6
510,115,2,1,35,37;                                                    13P      7
510,117,1,1,39;                                                       15P      8
510,119,2,1,41,43;                                                    17P      9
510,121,1,1,45;                                                       19P     10
510,123,1,1,47;                                                       21P     11
510,125,1,1,49;                                                       23P     12
510,127,1,1,51;                                                       25P     13
508,6,0,131,1,1,0,0,131,2,1,0,0,131,3,1,0,0,131,4,1,0,0,131,2,0,      27P     14
0,0,131,5,1,0;                                                        27P     15
508,6,0,131,6,0,0,0,131,7,0,0,0,131,8,1,0,0,131,1,0,0,0,131,5,0,      29P     16
0,0,131,8,0,0;                                                        29P     17
508,2,0,131,4,0,0,0,131,3,0,0;                                        31P     18
508,6,0,131,9,1,0,0,131,10,1,0,0,131,7,1,0,0,131,6,1,0,0,131,10,      33P     19
0,0,0,131,11,1,0;                                                     33P     20
508,2,0,131,9,0,0,0,131,11,0,0;                                       35P     21
508,1,0,131,12,1,0;                                                   37P     22
508,7,0,131,13,1,0,0,131,14,1,0,0,131,15,1,0,0,131,16,1,0,0,131,      39P     23
17,1,0,0,131,14,0,0,0,131,18,1,0;                                     39P     24
508,8,0,131,19,0,0,0,131,20,0,0,0,131,21,0,0,0,131,22,1,0,0,131,      41P     25
16,0,0,0,131,15,0,0,0,131,17,0,0,0,131,22,0,0;                        41P     26
508,1,0,131,23,0,0;                                                   43P     27
508,2,0,131,13,0,0,0,131,18,0,0;                                      45P     28
508,7,0,131,24,1,0,0,131,25,1,0,0,131,20,1,0,0,131,19,1,0,0,131,      47P     29
21,1,0,0,131,25,0,0,0,131,26,1,0;                                     47P     30
508,2,0,131,24,0,0,0,131,26,0,0;                                      49P     31
508,4,0,131,23,1,0,0,131,27,1,0,0,131,12,0,0,0,131,27,0,0;            51P     32
126,4,2,0,0,0,0,-3.14159265358979,-3.14159265358979,                  53P     33
-3.14159265358979,-1.5707963267949,-1.5707963267949,                  53P     34
-1.22464679914735D-16,-1.22464679914735D-16,                          53P     35
-1.22464679914735D-16,1.,0.707106781186548,1.,0.707106781186548,      53P     36
1.,25.4,-6.22120573966855D-15,1.,25.4,-25.4,1.,                       53P     37
-4.66590430475142D-15,-25.4,1.,-25.4,-25.4,1.,-25.4,0.,1.,            53P     38
-3.14159265358979,-1.22464679914735D-16,0.,0.,0.;                     53P     39
126,2,2,0,0,0,0,0.,0.,0.,1.5707963267949,1.5707963267949,             55P     40
1.5707963267949,1.,0.707106781186542,1.,-25.4,0.,1.,-25.4,0.,         55P     41
-3.06161699786839D-17,-24.4,0.,0.,0.,1.5707963267949,0.,0.,0.;        55P     42
126,4,2,0,0,0,0,1.22464679914735D-16,1.22464679914735D-16,            57P     43
1.22464679914735D-16,1.5707963267949,1.5707963267949,                 57P     44
3.14159265358979,3.14159265358979,3.14159265358979,1.,                57P     45
0.707106781186548,1.,0.707106781186547,1.,-24.4,0.,0.,-24.4,          57P     46
-24.4,0.,-4.48220728487931D-15,-24.4,0.,24.4,-24.4,0.,24.4,           57P     47
-5.97627637983908D-15,0.,1.22464679914735D-16,3.14159265358979,       57P     48
0.,0.,0.;                                                             57P     49
126,4,2,0,0,0,0,-3.14159265358979,-3.14159265358979,                  59P     50
-3.14159265358979,-1.5707963267949,-1.5707963267949,                  59P     51
1.22464679914735D-16,1.22464679914735D-16,1.22464679914735D-16,       59P     52
1.,0.707106781186547,1.,0.707106781186548,1.,24.4,0.,0.,24.4,         59P     53
24.4,0.,1.49406909495977D-15,24.4,0.,-24.4,24.4,0.,-24.4,0.,0.,       59P     54
-3.14159265358979,1.22464679914735D-16,0.,0.,0.;                      59P     55
126,4,2,0,0,0,0,-1.22464679914735D-16,-1.22464679914735D-16,          61P     56
-1.22464679914735D-16,1.5707963267949,1.5707963267949,                61P     57
3.14159265358979,3.14159265358979,3.14159265358979,1.,                61P     58
0.707106781186548,1.,0.707106781186548,1.,-25.4,0.,1.,-25.4,          61P     59
25.4,1.,1.55530143491714D-15,25.4,1.,25.4,25.4,1.,25.4,0.,1.,         61P     60
-1.22464679914735D-16,3.14159265358979,0.,0.,0.;                      61P     61
126,4,2,0,0,0,0,-3.14159265358979,-3.14159265358979,                  63P     62
-3.14159265358979,-1.5707963267949,-1.5707963267949,                  63P     63
1.22464679914735D-16,1.22464679914735D-16,1.22464679914735D-16,       63P     64
1.,0.707106781186548,1.,0.707106781186548,1.,25.4,0.,6.,25.4,         63P     65
25.4,6.,1.55530143491714D-15,25.4,6.,-25.4,25.4,6.,-25.4,0.,6.,       63P     66
-3.14159265358979,1.22464679914735D-16,0.,0.,0.;                      63P     67
126,4,2,0,0,0,0,1.22464679914735D-16,1.22464679914735D-16,            65P     68
1.22464679914735D-16,1.5707963267949,1.5707963267949,                 65P     69
3.14159265358979,3.14159265358979,3.14159265358979,1.,                65P     70
0.707106781186548,1.,0.707106781186548,1.,-25.4,0.,6.,-25.4,          65P     71
-25.4,6.,-4.66590430475142D-15,-25.4,6.,25.4,-25.4,6.,25.4,           65P     72
-6.22120573966855D-15,6.,1.22464679914735D-16,3.14159265358979,       65P     73
0.,0.,0.;                                                             65P     74
126,1,1,0,0,1,0,-0.236220472440945,-0.236220472440945,                67P     75
-0.0393700787401575,-0.0393700787401575,1.,1.,-25.4,0.,6.,-25.4,      67P     76
0.,1.,-0.236220472440945,-0.0393700787401575,0.,0.,0.;                67P     77
126,4,2,0,0,0,0,-3.14159265358979,-3.14159265358979,                  69P     78
-3.14159265358979,-1.5707963267949,-1.5707963267949,                  69P     79
-1.22464679914735D-16,-1.22464679914735D-16,                          69P     80
-1.22464679914735D-16,1.,0.707106781186547,1.,0.707106781186548,      69P     81
1.,24.4,-5.97627637983908D-15,7.,24.4,-24.4,7.,                       69P     82
-4.48220728487931D-15,-24.4,7.,-24.4,-24.4,7.,-24.4,0.,7.,            69P     83
-3.14159265358979,-1.22464679914735D-16,0.,0.,0.;                     69P     84
126,2,2,0,0,0,0,-1.5707963267949,-1.5707963267949,                    71P     85
-1.5707963267949,0.,0.,0.,1.,0.707106781186544,1.,-24.4,0.,7.,        71P     86
-25.4,0.,7.,-25.4,0.,6.,-1.5707963267949,0.,0.,0.,0.;                 71P     87
126,4,2,0,0,0,0,-1.22464679914735D-16,-1.22464679914735D-16,          73P     88
-1.22464679914735D-16,1.5707963267949,1.5707963267949,                73P     89
3.14159265358979,3.14159265358979,3.14159265358979,1.,                73P     90
0.707106781186548,1.,0.707106781186547,1.,-24.4,0.,7.,-24.4,          73P     91
24.4,7.,1.49406909495977D-15,24.4,7.,24.4,24.4,7.,24.4,0.,7.,         73P     92
-1.22464679914735D-16,3.14159265358979,0.,0.,0.;                      73P     93
126,8,2,0,1,0,0,-3.14159265358979,-3.14159265358979,                  75P     94
-3.14159265358979,-1.5707963267949,-1.5707963267949,0.,0.,            75P     95
1.5707963267949,1.5707963267949,3.14159265358979,                     75P     96
3.14159265358979,3.14159265358979,1.,0.707106781186548,1.,            75P     97
0.707106781186547,1.,0.707106781186547,1.,0.707106781186548,1.,       75P     98
7.59491566381497,-9.3010891574851D-16,7.,7.59491566381497,            75P     99
-7.59491566381497,7.,-4.65054457874255D-16,-7.59491566381497,7.,      75P    100
-7.59491566381497,-7.59491566381497,7.,-7.59491566381497,0.,7.,       75P    101
-7.59491566381497,7.59491566381497,7.,-4.65054457874255D-16,          75P    102
7.59491566381497,7.,7.59491566381497,7.59491566381497,7.,             75P    103
7.59491566381497,9.3010891574851D-16,7.,-3.14159265358979,            75P    104
3.14159265358979,0.,0.,0.;                                            75P    105
126,2,2,0,0,0,0,-3.14159265358979,-3.14159265358979,                  77P    106
-3.14159265358979,-1.5707963267949,-1.5707963267949,                  77P    107
-1.5707963267949,1.,0.707106781186548,1.,-11.2191959485473,-33.,      77P    108
63.5,-11.2191959485472,-33.,74.7191959485473,                         77P    109
6.86977620369767D-16,-33.,74.7191959485473,-3.14159265358979,         77P    110
-1.5707963267949,0.,0.,0.;                                            77P    111
126,2,2,0,0,0,0,-1.5707963267949,-1.5707963267949,                    79P    112
-1.5707963267949,0.,0.,0.,1.,0.707106781186545,1.,0.,-33.,            79P    113
74.7191959485473,0.,-33.,75.7191959485473,0.,-32.,                    79P    114
75.7191959485473,-1.5707963267949,0.,0.,0.,0.;                        79P    115
126,2,2,0,0,0,0,1.5707963267949,1.5707963267949,1.5707963267949,      81P    116
3.14159265358979,3.14159265358979,3.14159265358979,1.,                81P    117
0.707106781186548,1.,7.48209960327135D-16,-32.,75.7191959485473,      81P    118
-12.2191959485473,-32.,75.7191959485473,-12.2191959485473,-32.,       81P    119
63.5,1.5707963267949,3.14159265358979,0.,0.,0.;                       81P    120
126,4,2,0,0,0,0,-3.14159265358979,-3.14159265358979,                  83P    121
-3.14159265358979,-1.5707963267949,-1.5707963267949,0.,0.,0.,1.,      83P    122
0.707106781186548,1.,0.707106781186548,1.,-12.2191959485473,          83P    123
-32.,63.5,-12.2191959485473,-32.,51.2808040514527,                    83P    124
7.48209960327135D-16,-32.,51.2808040514527,12.2191959485473,          83P    125
-32.,51.2808040514527,12.2191959485473,-32.,63.5,                     83P    126
-3.14159265358979,0.,0.,0.,0.;                                        83P    127
126,2,2,0,0,0,0,0.,0.,0.,1.5707963267949,1.5707963267949,             85P    128
1.5707963267949,1.,0.707106781186548,1.,12.2191959485473,-32.,        85P    129
63.5,12.2191959485473,-32.,75.7191959485473,                          85P    130
7.48209960327135D-16,-32.,75.7191959485473,0.,1.5707963267949,        85P    131
0.,0.,0.;                                                             85P    132
126,6,2,0,0,0,0,-1.5707963267949,-1.5707963267949,                    87P    133
-1.5707963267949,0.,0.,1.5707963267949,1.5707963267949,               87P    134
3.14159265358979,3.14159265358979,3.14159265358979,1.,                87P    135
0.707106781186548,1.,0.707106781186548,1.,0.707106781186548,1.,       87P    136
6.86977620369767D-16,-33.,74.7191959485473,11.2191959485473,          87P    137
-33.,74.7191959485473,11.2191959485473,-33.,63.5,                     87P    138
11.2191959485473,-33.,52.2808040514527,6.86977620369767D-16,          87P    139
-33.,52.2808040514527,-11.2191959485472,-33.,52.2808040514527,        87P    140
-11.2191959485473,-33.,63.5,-1.5707963267949,3.14159265358979,        87P    141
0.,0.,0.;                                                             87P    142
126,4,2,0,0,0,0,-3.14159265358979,-3.14159265358979,                  89P    143
-3.14159265358979,-1.5707963267949,-1.5707963267949,0.,0.,0.,1.,      89P    144
0.707106781186548,1.,0.707106781186548,1.,-12.2191959485473,32.,      89P    145
63.5,-12.2191959485473,32.,75.7191959485473,                          89P    146
7.48209960327135D-16,32.,75.7191959485473,12.2191959485473,32.,       89P    147
75.7191959485473,12.2191959485473,32.,63.5,-3.14159265358979,0.,      89P    148
0.,0.,0.;                                                             89P    149
126,2,2,0,0,0,0,1.5707963267949,1.5707963267949,1.5707963267949,      91P    150
3.14159265358979,3.14159265358979,3.14159265358979,1.,                91P    151
0.707106781186548,1.,7.48209960327135D-16,32.,51.2808040514527,       91P    152
-12.2191959485473,32.,51.2808040514527,-12.2191959485473,32.,         91P    153
63.5,1.5707963267949,3.14159265358979,0.,0.,0.;                       91P    154
126,2,2,0,0,0,0,0.,0.,0.,1.5707963267949,1.5707963267949,             93P    155
1.5707963267949,1.,0.707106781186548,1.,12.2191959485473,32.,         93P    156
63.5,12.2191959485473,32.,51.2808040514527,7.48209960327135D-16,      93P    157
32.,51.2808040514527,0.,1.5707963267949,0.,0.,0.;                     93P    158
126,1,1,0,0,1,0,-2.61883025157678,-2.61883025157678,                  95P    159
2.61883025157678,2.61883025157678,1.,1.,12.2191959485473,32.,         95P    160
63.5,12.2191959485473,-32.,63.5,-2.61883025157678,                    95P    161
2.61883025157678,0.,0.,0.;                                            95P    162
126,33,3,0,1,1,1,0.,0.,0.,0.,0.297133320623435,                       97P    163
0.297133320623435,0.59426664124687,0.59426664124687,                  97P    164
0.889116028295857,0.889116028295857,1.18396541534484,                 97P    165
1.18396541534484,1.47881480239383,1.47881480239383,                   97P    166
1.77366418944282,1.77366418944282,2.07079751006625,                   97P    167
2.07079751006625,2.36793083068969,2.36793083068969,                   97P    168
2.66506415131312,2.66506415131312,2.96219747193656,                   97P    169
2.96219747193656,3.25704685898554,3.25704685898554,                   97P    170
3.55189624603453,3.55189624603453,3.84674563308352,                   97P    171
3.84674563308352,4.1415950201325,4.1415950201325,                     97P    172
4.43872834075594,4.43872834075594,4.73586166137937,                   97P    173
4.73586166137937,4.73586166137937,4.73586166137937,1.,1.,1.,1.,       97P    174
1.,1.,1.,1.,1.,1.,1.,1.,1.,1.,1.,1.,1.,1.,1.,1.,1.,1.,1.,1.,1.,       97P    175
1.,1.,1.,1.,1.,1.,1.,1.,1.,7.59491566381497,                          97P    176
1.38777878078145D-16,53.9278526082946,7.59491566381497,               97P    177
-0.990444402078117,53.9278526082946,7.39123298096513,                 97P    178
-2.01676256479354,53.7580465507422,6.60985322807086,                  97P    179
-3.87395561971525,53.2118615002924,6.03227170066014,                  97P    180
-4.70856103618685,52.8480811404139,4.71364842797298,                  97P    181
-6.02718430887401,52.2028817239182,3.87772712566194,                  97P    182
-6.60825562510869,51.8726701525575,2.01311096101923,                  97P    183
-7.39278013651831,51.4095511750524,0.982831290163288,                 97P    184
-7.59491566381497,51.2808040514527,-0.982831290163289,                97P    185
-7.59491566381497,51.2808040514527,-2.01311096101924,                 97P    186
-7.39278013651831,51.4095511750524,-3.87772712566194,                 97P    187
-6.60825562510869,51.8726701525575,-4.71364842797298,                 97P    188
-6.02718430887401,52.2028817239182,-6.03227170066014,                 97P    189
-4.70856103618685,52.8480811404139,-6.60985322807087,                 97P    190
-3.87395561971525,53.2118615002924,-7.39123298096513,                 97P    191
-2.01676256479354,53.7580465507422,-7.59491566381497,                 97P    192
-0.990444402078117,53.9278526082946,-7.59491566381497,                97P    193
0.990444402078117,53.9278526082946,-7.39123298096513,                 97P    194
2.01676256479354,53.7580465507422,-6.60985322807087,                  97P    195
3.87395561971525,53.2118615002924,-6.03227170066014,                  97P    196
4.70856103618685,52.8480811404139,-4.71364842797298,                  97P    197
6.02718430887401,52.2028817239182,-3.87772712566194,                  97P    198
6.60825562510869,51.8726701525575,-2.01311096101924,                  97P    199
7.3927801365183,51.4095511750524,-0.98283129016329,                   97P    200
7.59491566381497,51.2808040514527,0.982831290163288,                  97P    201
7.59491566381497,51.2808040514527,2.01311096101923,                   97P    202
7.39278013651831,51.4095511750524,3.87772712566194,                   97P    203
6.60825562510869,51.8726701525575,4.71364842797298,                   97P    204
6.02718430887401,52.2028817239182,6.03227170066013,                   97P    205
4.70856103618685,52.8480811404139,6.60985322807086,                   97P    206
3.87395561971525,53.2118615002923,7.39123298096513,                   97P    207
2.01676256479355,53.7580465507422,7.59491566381497,                   97P    208
0.990444402078119,53.9278526082946,7.59491566381497,                  97P    209
4.16333634234434D-16,53.9278526082946,0.,4.73586166137937,0.,0.,      97P    210
0.;                                                                   97P    211
126,2,2,0,0,0,0,-3.14159265358979,-3.14159265358979,                  99P    212
-3.14159265358979,-1.5707963267949,-1.5707963267949,                  99P    213
-1.5707963267949,1.,0.707106781186548,1.,-11.2191959485473,33.,       99P    214
63.5,-11.2191959485472,33.,52.2808040514527,                          99P    215
6.86977620369767D-16,33.,52.2808040514527,-3.14159265358979,          99P    216
-1.5707963267949,0.,0.,0.;                                            99P    217
126,2,2,0,0,0,0,-1.5707963267949,-1.5707963267949,                   101P    218
-1.5707963267949,0.,0.,0.,1.,0.707106781186545,1.,0.,33.,            101P    219
52.2808040514527,0.,33.,51.2808040514527,0.,32.,                     101P    220
51.2808040514527,-1.5707963267949,0.,0.,0.,0.;                       101P    221
126,6,2,0,0,0,0,-1.5707963267949,-1.5707963267949,                   103P    222
-1.5707963267949,0.,0.,1.5707963267949,1.5707963267949,              103P    223
3.14159265358979,3.14159265358979,3.14159265358979,1.,               103P    224
0.707106781186548,1.,0.707106781186548,1.,0.707106781186548,1.,      103P    225
6.86977620369767D-16,33.,52.2808040514527,11.2191959485473,33.,      103P    226
52.2808040514527,11.2191959485473,33.,63.5,11.2191959485473,33.,     103P    227
74.7191959485473,6.86977620369767D-16,33.,74.7191959485473,          103P    228
-11.2191959485472,33.,74.7191959485473,-11.2191959485473,33.,        103P    229
63.5,-1.5707963267949,3.14159265358979,0.,0.,0.;                     103P    230
126,1,1,0,0,1,0,-7.1005202684774,-7.1005202684774,                   105P    231
-0.921669220548508,-0.921669220548508,1.,1.,7.59491566381497,0.,     105P    232
53.9278526082946,7.59491566381497,0.,7.,-7.1005202684774,            105P    233
-0.921669220548508,0.,0.,0.;                                         105P    234
128,2,8,2,2,0,1,0,0,1,-1.5707963267949,-1.5707963267949,             107P    235
-1.5707963267949,0.,0.,0.,-3.14159265358979,-3.14159265358979,       107P    236
-3.14159265358979,-1.5707963267949,-1.5707963267949,0.,0.,           107P    237
1.5707963267949,1.5707963267949,3.14159265358979,                    107P    238
3.14159265358979,3.14159265358979,1.,0.707106781186542,1.,           107P    239
0.707106781186548,0.499999999999996,0.707106781186548,1.,            107P    240
0.707106781186542,1.,0.707106781186548,0.499999999999996,            107P    241
0.707106781186548,1.,0.707106781186542,1.,0.707106781186548,         107P    242
0.499999999999996,0.707106781186548,1.,0.707106781186542,1.,         107P    243
0.707106781186548,0.499999999999996,0.707106781186548,1.,            107P    244
0.707106781186542,1.,-25.4,0.,1.,-25.4,0.,-3.06161699786839D-17,     107P    245
-24.4,0.,0.,-25.4,-25.4,1.,-25.4,-25.4,-3.06161699786838D-17,        107P    246
-24.4,-24.4,0.,0.,-25.4,1.,0.,-25.4,0.,0.,-24.4,0.,25.4,-25.4,       107P    247
1.,25.4,-25.4,3.06161699786838D-17,24.4,-24.4,0.,25.4,0.,1.,         107P    248
25.4,0.,3.06161699786839D-17,24.4,0.,0.,25.4,25.4,1.,25.4,25.4,      107P    249
3.06161699786838D-17,24.4,24.4,0.,0.,25.4,1.,0.,25.4,0.,0.,24.4,     107P    250
0.,-25.4,25.4,1.,-25.4,25.4,-3.06161699786838D-17,-24.4,24.4,0.,     107P    251
-25.4,0.,1.,-25.4,0.,-3.06161699786839D-17,-24.4,0.,0.,              107P    252
-1.5707963267949,0.,-3.14159265358979,3.14159265358979;              107P    253
128,1,8,1,2,0,1,0,0,1,0.0393700787401575,0.0393700787401575,         109P    254
0.236220472440945,0.236220472440945,-3.14159265358979,               109P    255
-3.14159265358979,-3.14159265358979,-1.5707963267949,                109P    256
-1.5707963267949,0.,0.,1.5707963267949,1.5707963267949,              109P    257
3.14159265358979,3.14159265358979,3.14159265358979,1.,1.,            109P    258
0.707106781186548,0.707106781186548,1.,1.,0.707106781186548,         109P    259
0.707106781186548,1.,1.,0.707106781186548,0.707106781186548,1.,      109P    260
1.,0.707106781186548,0.707106781186548,1.,1.,-25.4,0.,6.,-25.4,      109P    261
0.,1.,-25.4,-25.4,6.,-25.4,-25.4,1.,0.,-25.4,6.,0.,-25.4,1.,         109P    262
25.4,-25.4,6.,25.4,-25.4,1.,25.4,0.,6.,25.4,0.,1.,25.4,25.4,6.,      109P    263
25.4,25.4,1.,0.,25.4,6.,0.,25.4,1.,-25.4,25.4,6.,-25.4,25.4,1.,      109P    264
-25.4,0.,6.,-25.4,0.,1.,0.0393700787401575,0.236220472440945,        109P    265
-3.14159265358979,3.14159265358979;                                  109P    266
128,1,1,1,1,0,0,1,0,0,-2.441,-2.441,2.441,2.441,-2.441,-2.441,       111P    267
2.441,2.441,1.,1.,1.,1.,24.41,-24.41,0.,-24.41,-24.41,0.,24.41,      111P    268
24.41,0.,-24.41,24.41,0.,-2.441,2.441,-2.441,2.441;                  111P    269
128,2,8,2,2,0,1,0,0,1,0.,0.,0.,1.5707963267949,1.5707963267949,      113P    270
1.5707963267949,-3.14159265358979,-3.14159265358979,                 113P    271
-3.14159265358979,-1.5707963267949,-1.5707963267949,0.,0.,           113P    272
1.5707963267949,1.5707963267949,3.14159265358979,                    113P    273
3.14159265358979,3.14159265358979,1.,0.707106781186544,1.,           113P    274
0.707106781186548,0.499999999999998,0.707106781186548,1.,            113P    275
0.707106781186544,1.,0.707106781186548,0.499999999999998,            113P    276
0.707106781186548,1.,0.707106781186544,1.,0.707106781186548,         113P    277
0.499999999999998,0.707106781186548,1.,0.707106781186544,1.,         113P    278
0.707106781186548,0.499999999999998,0.707106781186548,1.,            113P    279
0.707106781186544,1.,-24.4,0.,7.,-25.4,0.,7.,-25.4,0.,6.,-24.4,      113P    280
-24.4,7.,-25.4,-25.4,7.,-25.4,-25.4,6.,0.,-24.4,7.,0.,-25.4,7.,      113P    281
0.,-25.4,6.,24.4,-24.4,7.,25.4,-25.4,7.,25.4,-25.4,6.,24.4,0.,       113P    282
7.,25.4,0.,7.,25.4,0.,6.,24.4,24.4,7.,25.4,25.4,7.,25.4,25.4,6.,     113P    283
0.,24.4,7.,0.,25.4,7.,0.,25.4,6.,-24.4,24.4,7.,-25.4,25.4,7.,        113P    284
-25.4,25.4,6.,-24.4,0.,7.,-25.4,0.,7.,-25.4,0.,6.,0.,                113P    285
1.5707963267949,-3.14159265358979,3.14159265358979;                  113P    286
128,1,1,1,1,0,0,1,0,0,-2.441,-2.441,2.441,2.441,-2.441,-2.441,       115P    287
2.441,2.441,1.,1.,1.,1.,-24.41,-24.41,7.,24.41,-24.41,7.,-24.41,     115P    288
24.41,7.,24.41,24.41,7.,-2.441,2.441,-2.441,2.441;                   115P    289
128,2,8,2,2,0,1,0,0,1,0.,0.,0.,1.5707963267949,1.5707963267949,      117P    290
1.5707963267949,-3.14159265358979,-3.14159265358979,                 117P    291
-3.14159265358979,-1.5707963267949,-1.5707963267949,0.,0.,           117P    292
1.5707963267949,1.5707963267949,3.14159265358979,                    117P    293
3.14159265358979,3.14159265358979,1.,0.707106781186545,1.,           117P    294
0.707106781186548,0.499999999999998,0.707106781186548,1.,            117P    295
0.707106781186545,1.,0.707106781186548,0.499999999999998,            117P    296
0.707106781186548,1.,0.707106781186545,1.,0.707106781186548,         117P    297
0.499999999999998,0.707106781186548,1.,0.707106781186545,1.,         117P    298
0.707106781186548,0.499999999999998,0.707106781186548,1.,            117P    299
0.707106781186545,1.,0.,-33.,74.7191959485473,0.,-33.,               117P    300
75.7191959485473,0.,-32.,75.7191959485473,-11.2191959485473,         117P    301
-33.,74.7191959485473,-12.2191959485473,-33.,75.7191959485473,       117P    302
-12.2191959485473,-32.,75.7191959485473,-11.2191959485473,-33.,      117P    303
63.5,-12.2191959485473,-33.,63.5,-12.2191959485473,-32.,63.5,        117P    304
-11.2191959485473,-33.,52.2808040514527,-12.2191959485473,-33.,      117P    305
51.2808040514527,-12.2191959485473,-32.,51.2808040514527,0.,         117P    306
-33.,52.2808040514527,0.,-33.,51.2808040514527,0.,-32.,              117P    307
51.2808040514527,11.2191959485473,-33.,52.2808040514527,             117P    308
12.2191959485473,-33.,51.2808040514527,12.2191959485473,-32.,        117P    309
51.2808040514527,11.2191959485473,-33.,63.5,12.2191959485473,        117P    310
-33.,63.5,12.2191959485473,-32.,63.5,11.2191959485473,-33.,          117P    311
74.7191959485473,12.2191959485473,-33.,75.7191959485473,             117P    312
12.2191959485473,-32.,75.7191959485473,0.,-33.,74.7191959485473,     117P    313
0.,-33.,75.7191959485473,0.,-32.,75.7191959485473,0.,                117P    314
1.5707963267949,-3.14159265358979,3.14159265358979;                  117P    315
128,1,8,1,2,0,1,0,0,1,-2.61883025157678,-2.61883025157678,           119P    316
2.61883025157678,2.61883025157678,-3.14159265358979,                 119P    317
-3.14159265358979,-3.14159265358979,-1.5707963267949,                119P    318
-1.5707963267949,0.,0.,1.5707963267949,1.5707963267949,              119P    319
3.14159265358979,3.14159265358979,3.14159265358979,1.,1.,            119P    320
0.707106781186548,0.707106781186548,1.,1.,0.707106781186548,         119P    321
0.707106781186548,1.,1.,0.707106781186548,0.707106781186548,1.,      119P    322
1.,0.707106781186548,0.707106781186548,1.,1.,12.2191959485473,       119P    323
32.,63.5,12.2191959485473,-32.,63.5,12.2191959485473,32.,            119P    324
51.2808040514527,12.2191959485473,-32.,51.2808040514527,0.,32.,      119P    325
51.2808040514527,0.,-32.,51.2808040514527,-12.2191959485473,32.,     119P    326
51.2808040514527,-12.2191959485473,-32.,51.2808040514527,            119P    327
-12.2191959485473,32.,63.5,-12.2191959485473,-32.,63.5,              119P    328
-12.2191959485473,32.,75.7191959485473,-12.2191959485473,-32.,       119P    329
75.7191959485473,0.,32.,75.7191959485473,0.,-32.,                    119P    330
75.7191959485473,12.2191959485473,32.,75.7191959485473,              119P    331
12.2191959485473,-32.,75.7191959485473,12.2191959485473,32.,         119P    332
63.5,12.2191959485473,-32.,63.5,-2.61883025157678,                   119P    333
2.61883025157678,-3.14159265358979,3.14159265358979;                 119P    334
128,1,1,1,1,0,0,1,0,0,-1.12291959485473,-1.12291959485473,           121P    335
1.12291959485473,1.12291959485473,-1.12291959485473,                 121P    336
-1.12291959485473,1.12291959485473,1.12291959485473,1.,1.,1.,1.,     121P    337
-11.2291959485473,-33.,74.7291959485472,-11.2291959485473,-33.,      121P    338
52.2708040514527,11.2291959485473,-33.,74.7291959485472,             121P    339
11.2291959485473,-33.,52.2708040514527,-1.12291959485473,            121P    340
1.12291959485473,-1.12291959485473,1.12291959485473;                 121P    341
128,2,8,2,2,0,1,0,0,1,0.,0.,0.,1.5707963267949,1.5707963267949,      123P    342
1.5707963267949,-3.14159265358979,-3.14159265358979,                 123P    343
-3.14159265358979,-1.5707963267949,-1.5707963267949,0.,0.,           123P    344
1.5707963267949,1.5707963267949,3.14159265358979,                    123P    345
3.14159265358979,3.14159265358979,1.,0.707106781186545,1.,           123P    346
0.707106781186548,0.499999999999998,0.707106781186548,1.,            123P    347
0.707106781186545,1.,0.707106781186548,0.499999999999998,            123P    348
0.707106781186548,1.,0.707106781186545,1.,0.707106781186548,         123P    349
0.499999999999998,0.707106781186548,1.,0.707106781186545,1.,         123P    350
0.707106781186548,0.499999999999998,0.707106781186548,1.,            123P    351
0.707106781186545,1.,0.,33.,52.2808040514527,0.,33.,                 123P    352
51.2808040514527,0.,32.,51.2808040514527,-11.2191959485473,33.,      123P    353
52.2808040514527,-12.2191959485473,33.,51.2808040514527,             123P    354
-12.2191959485473,32.,51.2808040514527,-11.2191959485473,33.,        123P    355
63.5,-12.2191959485473,33.,63.5,-12.2191959485473,32.,63.5,          123P    356
-11.2191959485473,33.,74.7191959485473,-12.2191959485473,33.,        123P    357
75.7191959485473,-12.2191959485473,32.,75.7191959485473,0.,33.,      123P    358
74.7191959485473,0.,33.,75.7191959485473,0.,32.,                     123P    359
75.7191959485473,11.2191959485473,33.,74.7191959485473,              123P    360
12.2191959485473,33.,75.7191959485473,12.2191959485473,32.,          123P    361
75.7191959485473,11.2191959485473,33.,63.5,12.2191959485473,33.,     123P    362
63.5,12.2191959485473,32.,63.5,11.2191959485473,33.,                 123P    363
52.2808040514527,12.2191959485473,33.,51.2808040514527,              123P    364
12.2191959485473,32.,51.2808040514527,0.,33.,52.2808040514527,       123P    365
0.,33.,51.2808040514527,0.,32.,51.2808040514527,0.,                  123P    366
1.5707963267949,-3.14159265358979,3.14159265358979;                  123P    367
128,1,1,1,1,0,0,1,0,0,-1.12291959485473,-1.12291959485473,           125P    368
1.12291959485473,1.12291959485473,-1.12291959485473,                 125P    369
-1.12291959485473,1.12291959485473,1.12291959485473,1.,1.,1.,1.,     125P    370
-11.2291959485473,33.,52.2708040514527,-11.2291959485473,33.,        125P    371
74.7291959485472,11.2291959485473,33.,52.2708040514527,              125P    372
11.2291959485473,33.,74.7291959485472,-1.12291959485473,             125P    373
1.12291959485473,-1.12291959485473,1.12291959485473;                 125P    374
128,1,8,1,2,0,1,0,0,1,0.921669220548508,0.921669220548508,           127P    375
7.1005202684774,7.1005202684774,-3.14159265358979,                   127P    376
-3.14159265358979,-3.14159265358979,-1.5707963267949,                127P    377
-1.5707963267949,0.,0.,1.5707963267949,1.5707963267949,              127P    378
3.14159265358979,3.14159265358979,3.14159265358979,1.,1.,            127P    379
0.707106781186548,0.707106781186548,1.,1.,0.707106781186548,         127P    380
0.707106781186548,1.,1.,0.707106781186548,0.707106781186548,1.,      127P    381
1.,0.707106781186548,0.707106781186548,1.,1.,7.59491566381497,       127P    382
0.,53.9278526082946,7.59491566381497,0.,7.,7.59491566381497,         127P    383
7.59491566381497,53.9278526082946,7.59491566381497,                  127P    384
7.59491566381497,7.,0.,7.59491566381497,53.9278526082946,0.,         127P    385
7.59491566381497,7.,-7.59491566381497,7.59491566381497,              127P    386
53.9278526082946,-7.59491566381497,7.59491566381497,7.,              127P    387
-7.59491566381497,0.,53.9278526082946,-7.59491566381497,0.,7.,       127P    388
-7.59491566381497,-7.59491566381497,53.9278526082946,                127P    389
-7.59491566381497,-7.59491566381497,7.,0.,-7.59491566381497,         127P    390
53.9278526082946,0.,-7.59491566381497,7.,7.59491566381497,           127P    391
-7.59491566381497,53.9278526082946,7.59491566381497,                 127P    392
-7.59491566381497,7.,7.59491566381497,0.,53.9278526082946,           127P    393
7.59491566381497,0.,7.,0.921669220548508,7.1005202684774,            127P    394
-3.14159265358979,3.14159265358979;                                  127P    395
502,20,25.4,-6.22120573966855D-15,1.,-25.4,0.,1.,-24.4,0.,0.,        129P    396
24.4,0.,0.,25.4,0.,6.,-25.4,0.,6.,24.4,-5.97627637983908D-15,7.,     129P    397
-24.4,0.,7.,7.59491566381497,-9.3010891574851D-16,7.,                129P    398
-11.2191959485473,-33.,63.5,0.,-33.,74.7191959485473,0.,-32.,        129P    399
75.7191959485473,-12.2191959485473,-32.,63.5,12.2191959485473,       129P    400
-32.,63.5,-12.2191959485473,32.,63.5,12.2191959485473,32.,63.5,      129P    401
0.,32.,51.2808040514527,7.59491566381497,1.38777878078145D-16,       129P    402
53.9278526082946,-11.2191959485473,33.,63.5,0.,33.,                  129P    403
52.2808040514527;                                                    129P    404
504,27,53,129,1,129,2,55,129,2,129,3,57,129,3,129,4,59,129,4,        131P    405
129,3,61,129,2,129,1,63,129,5,129,6,65,129,6,129,5,67,129,6,129,     131P    406
2,69,129,7,129,8,71,129,8,129,6,73,129,8,129,7,75,129,9,129,9,       131P    407
77,129,10,129,11,79,129,11,129,12,81,129,12,129,13,83,129,13,        131P    408
129,14,85,129,14,129,12,87,129,11,129,10,89,129,15,129,16,91,        131P    409
129,17,129,15,93,129,16,129,17,95,129,16,129,14,97,129,18,129,       131P    410
18,99,129,19,129,20,101,129,20,129,17,103,129,20,129,19,105,129,     131P    411
18,129,9;                                                            131P    412
406,1,6HSolid1;                                                      133P    413
314,74.9019607843137,74.9019607843137,74.9019607843137,;             135P    414
S      1G      3D    136P    414                                        T      1
